<?xml version="1.0" encoding="UTF-8"?> <svg xmlns="http://www.w3.org/2000/svg" id="DE_Download_on_the" data-name="DE Download on the" viewBox="0 0 135 40"> <defs> <style>.cls-1{fill:#a6a6a6;}.cls-2{fill:#fff;}</style> </defs> <title>app-store</title> <path class="cls-1" d="M130.2,40H4.73A4.74,4.74,0,0,1,0,35.27V4.73A4.73,4.73,0,0,1,4.73,0H130.2A4.8,4.8,0,0,1,135,4.73V35.27A4.8,4.8,0,0,1,130.2,40h0Z" transform="translate(0 0)"></path> <path d="M134,35.27a3.83,3.83,0,0,1-3.83,3.83H4.73A3.83,3.83,0,0,1,.89,35.27V4.73A3.84,3.84,0,0,1,4.73.89H130.2A3.83,3.83,0,0,1,134,4.73V35.27h0Z" transform="translate(0 0)"></path> <path class="cls-2" d="M30.13,19.78a5.8,5.8,0,0,1,2.76-4.86,5.94,5.94,0,0,0-4.68-2.53c-2-.21-3.87,1.18-4.88,1.18s-2.57-1.16-4.23-1.12a6.23,6.23,0,0,0-5.24,3.2c-2.27,3.92-.58,9.69,1.6,12.86,1.09,1.55,2.36,3.29,4,3.23s2.23-1,4.19-1,2.51,1,4.21,1,2.84-1.56,3.89-3.13a12.82,12.82,0,0,0,1.78-3.62A5.6,5.6,0,0,1,30.13,19.78Z" transform="translate(0 0)"></path> <path class="cls-2" d="M26.93,10.31a5.71,5.71,0,0,0,1.31-4.09,5.81,5.81,0,0,0-3.76,1.94,5.43,5.43,0,0,0-1.34,3.94A4.8,4.8,0,0,0,26.93,10.31Z" transform="translate(0 0)"></path> <path class="cls-2" d="M53.68,31.5H51.41l-1.24-3.91H45.84L44.66,31.5H42.45L46.73,18.2h2.65ZM49.79,26l-1.12-3.48Q48.49,21.95,48,20h0q-0.2.85-.63,2.51L46.22,26h3.57Z" transform="translate(0 0)"></path> <path class="cls-2" d="M64.7,26.59a5.45,5.45,0,0,1-1.32,3.87,3.86,3.86,0,0,1-2.94,1.26,2.94,2.94,0,0,1-2.72-1.36h0v5.05H55.54V25.07q0-1.54-.08-3.16h1.88l0.12,1.52h0a3.79,3.79,0,0,1,6.07-.38A5.3,5.3,0,0,1,64.7,26.59Zm-2.17.08a4,4,0,0,0-.63-2.31A2.18,2.18,0,0,0,60,23.41a2.21,2.21,0,0,0-1.43.52,2.42,2.42,0,0,0-.84,1.37,2.79,2.79,0,0,0-.1.65v1.6a2.56,2.56,0,0,0,.64,1.77A2.13,2.13,0,0,0,60,30a2.18,2.18,0,0,0,1.88-.93A4.09,4.09,0,0,0,62.53,26.67Z" transform="translate(0 0)"></path> <path class="cls-2" d="M75.74,26.59a5.45,5.45,0,0,1-1.32,3.87,3.86,3.86,0,0,1-2.94,1.26,2.94,2.94,0,0,1-2.72-1.36h0v5.05H66.57V25.07q0-1.54-.08-3.16h1.88l0.12,1.52h0a3.79,3.79,0,0,1,6.07-.38A5.31,5.31,0,0,1,75.74,26.59Zm-2.17.08a4,4,0,0,0-.63-2.31,2.18,2.18,0,0,0-1.86-.95,2.21,2.21,0,0,0-1.43.52,2.42,2.42,0,0,0-.84,1.37,2.85,2.85,0,0,0-.1.65v1.6a2.57,2.57,0,0,0,.64,1.77A2.13,2.13,0,0,0,71,30a2.18,2.18,0,0,0,1.88-.93A4.09,4.09,0,0,0,73.56,26.67Z" transform="translate(0 0)"></path> <path class="cls-2" d="M88.08,27.77a3.55,3.55,0,0,1-1.18,2.76,5.24,5.24,0,0,1-3.62,1.16,6.34,6.34,0,0,1-3.45-.83l0.49-1.78a5.83,5.83,0,0,0,3.08.85,2.9,2.9,0,0,0,1.88-.55,1.78,1.78,0,0,0,.67-1.45,1.86,1.86,0,0,0-.55-1.36,5.16,5.16,0,0,0-1.84-1q-3.5-1.31-3.5-3.82A3.38,3.38,0,0,1,81.28,19a4.84,4.84,0,0,1,3.26-1,6.46,6.46,0,0,1,3,.63L87,20.37a5.25,5.25,0,0,0-2.55-.61,2.59,2.59,0,0,0-1.76.55,1.58,1.58,0,0,0-.53,1.2,1.63,1.63,0,0,0,.61,1.3,6.92,6.92,0,0,0,1.93,1,6.53,6.53,0,0,1,2.53,1.62A3.37,3.37,0,0,1,88.08,27.77Z" transform="translate(0 0)"></path> <path class="cls-2" d="M95.12,23.51H92.77v4.66q0,1.78,1.24,1.78a3.76,3.76,0,0,0,.95-0.1L95,31.46a4.82,4.82,0,0,1-1.66.24,2.55,2.55,0,0,1-2-.77,3.77,3.77,0,0,1-.71-2.59V23.5h-1.4V21.9h1.4V20.15l2.09-.63V21.9h2.35v1.6Z" transform="translate(0 0)"></path> <path class="cls-2" d="M105.73,26.63a5.26,5.26,0,0,1-1.26,3.63,4.51,4.51,0,0,1-3.51,1.46,4.3,4.3,0,0,1-3.37-1.4,5.11,5.11,0,0,1-1.25-3.53,5.22,5.22,0,0,1,1.29-3.65,4.49,4.49,0,0,1,3.49-1.42,4.39,4.39,0,0,1,3.39,1.4A5.06,5.06,0,0,1,105.73,26.63Zm-2.21.07a4.33,4.33,0,0,0-.57-2.28A2.11,2.11,0,0,0,101,23.27a2.14,2.14,0,0,0-2,1.15,4.41,4.41,0,0,0-.57,2.32A4.33,4.33,0,0,0,99.07,29a2.18,2.18,0,0,0,3.85,0A4.33,4.33,0,0,0,103.52,26.7Z" transform="translate(0 0)"></path> <path class="cls-2" d="M112.66,23.78a3.59,3.59,0,0,0-.67-0.06,2,2,0,0,0-1.74.85,3.2,3.2,0,0,0-.53,1.9v5h-2.13l0-6.57q0-1.66-.08-3h1.86l0.08,1.84h0.06a3.26,3.26,0,0,1,1.07-1.52,2.57,2.57,0,0,1,1.54-.51,3.42,3.42,0,0,1,.53,0v2Z" transform="translate(0 0)"></path> <path class="cls-2" d="M122.19,26.25a5,5,0,0,1-.08,1h-6.4a2.79,2.79,0,0,0,.93,2.17,3.17,3.17,0,0,0,2.09.67,7.06,7.06,0,0,0,2.59-.45l0.34,1.48a8,8,0,0,1-3.22.59,4.66,4.66,0,0,1-3.5-1.31,4.84,4.84,0,0,1-1.27-3.52,5.51,5.51,0,0,1,1.18-3.61,4.09,4.09,0,0,1,3.36-1.54,3.58,3.58,0,0,1,3.14,1.54A5.17,5.17,0,0,1,122.19,26.25Zm-2-.55a2.92,2.92,0,0,0-.42-1.64,1.86,1.86,0,0,0-1.7-.89,2,2,0,0,0-1.7.87,3.2,3.2,0,0,0-.63,1.66h4.44Z" transform="translate(0 0)"></path> <path class="cls-2" d="M47.43,13.43H43.71V6.89h1v5.65h2.67v0.88Z" transform="translate(0 0)"></path> <path class="cls-2" d="M52.37,13.43H51.42l-0.08-.54h0a1.62,1.62,0,0,1-1.38.65,1.42,1.42,0,0,1-1.08-.43,1.34,1.34,0,0,1-.37-1,1.46,1.46,0,0,1,.72-1.32,3.75,3.75,0,0,1,2-.45V10.3a0.84,0.84,0,0,0-1-.93A2.19,2.19,0,0,0,49,9.72L48.83,9a3,3,0,0,1,1.62-.41,1.68,1.68,0,0,1,1.85,1.95v1.74A7.25,7.25,0,0,0,52.37,13.43Zm-1.09-1.62V11.09q-1.74,0-1.74.95a0.71,0.71,0,0,0,.2.55,0.73,0.73,0,0,0,.51.18,1.06,1.06,0,0,0,.64-0.22A0.89,0.89,0,0,0,51.26,12,0.82,0.82,0,0,0,51.28,11.81Z" transform="translate(0 0)"></path> <path class="cls-2" d="M58.32,13.43H57.39l0-.76h0a1.57,1.57,0,0,1-1.51.86,1.77,1.77,0,0,1-1.42-.67,2.61,2.61,0,0,1-.56-1.74,2.74,2.74,0,0,1,.61-1.85,1.88,1.88,0,0,1,1.46-.66,1.41,1.41,0,0,1,1.33.64h0V6.55h1v5.61Q58.28,12.85,58.32,13.43Zm-1.09-2V10.66a1.54,1.54,0,0,0,0-.33,1.19,1.19,0,0,0-.38-0.64,1,1,0,0,0-.7-0.26,1.07,1.07,0,0,0-.92.47,2,2,0,0,0-.34,1.19,1.86,1.86,0,0,0,.32,1.14,1.08,1.08,0,0,0,.92.47,1,1,0,0,0,.83-0.39A1.3,1.3,0,0,0,57.23,11.44Z" transform="translate(0 0)"></path> <path class="cls-2" d="M64,10.85a2.53,2.53,0,0,1,0,.48H60.84a1.37,1.37,0,0,0,.46,1.07,1.56,1.56,0,0,0,1,.33,3.46,3.46,0,0,0,1.27-.22l0.16,0.73a3.94,3.94,0,0,1-1.58.29,2.29,2.29,0,0,1-1.72-.64,2.38,2.38,0,0,1-.62-1.73,2.7,2.7,0,0,1,.58-1.77,2,2,0,0,1,1.65-.76,1.76,1.76,0,0,1,1.54.76A2.52,2.52,0,0,1,64,10.85Zm-1-.27a1.43,1.43,0,0,0-.2-0.81A0.92,0.92,0,0,0,62,9.34a1,1,0,0,0-.83.43,1.58,1.58,0,0,0-.31.81H63Z" transform="translate(0 0)"></path> <path class="cls-2" d="M69.64,13.43h-1v-2.7q0-1.25-.95-1.25a1,1,0,0,0-.76.34,1.22,1.22,0,0,0-.29.81v2.8h-1V10.07q0-.62,0-1.35h0.92l0,0.74h0a1.51,1.51,0,0,1,.54-0.57A1.77,1.77,0,0,1,68,8.62,1.5,1.5,0,0,1,69.1,9a2.08,2.08,0,0,1,.54,1.56v2.82Z" transform="translate(0 0)"></path> <path class="cls-2" d="M75.48,7.31a0.6,0.6,0,0,1-.18.46,0.66,0.66,0,0,1-.47.18,0.6,0.6,0,0,1-.44-0.18,0.61,0.61,0,0,1-.18-0.45,0.59,0.59,0,0,1,.18-0.45,0.68,0.68,0,0,1,.91,0A0.59,0.59,0,0,1,75.48,7.31Zm-0.12,6.12h-1V8.72h1v4.72Z" transform="translate(0 0)"></path> <path class="cls-2" d="M84,13.43h-1V10.79c0-.87-0.3-1.31-0.89-1.31a0.83,0.83,0,0,0-.68.32,1.18,1.18,0,0,0-.26.76v2.86h-1V10.65a1.49,1.49,0,0,0-.22-0.85,0.73,0.73,0,0,0-.64-0.32,0.85,0.85,0,0,0-.7.35,1.25,1.25,0,0,0-.27.79v2.81h-1V10.06q0-.62,0-1.35h0.9l0,0.72h0a1.57,1.57,0,0,1,1.44-.81,1.28,1.28,0,0,1,1.3.88h0a1.84,1.84,0,0,1,.55-0.59,1.63,1.63,0,0,1,1-.29,1.37,1.37,0,0,1,1,.43,2.24,2.24,0,0,1,.5,1.59v2.8h0Z" transform="translate(0 0)"></path> </svg> 